<svg width="1513" height="1971" viewBox="0 0 1513 1971" fill="none" xmlns="http://www.w3.org/2000/svg">
<circle cx="446.5" cy="995.5" r="387.5" fill="#0A76DD"/>
<circle cx="387.5" cy="582.5" r="387.5" fill="#0A76DD"/>
<circle cx="787.5" cy="387.5" r="387.5" fill="#0A76DD"/>
<circle cx="1125.5" cy="646.5" r="387.5" fill="#0A76DD"/>
<circle cx="845.5" cy="1118.5" r="387.5" fill="#0A76DD"/>
<path d="M650 121L1152.5 259L1075.5 1430.5C942 1524.5 761 1525 650 1452V121Z" fill="url(#paint0_linear_325_848)" fill-opacity="0.5"/>
<ellipse cx="667.5" cy="1861.5" rx="549.5" ry="109.5" fill="#202020" fill-opacity="0.5"/>
<path d="M536 1704.51C538.506 1685.82 539.193 1674.72 539.845 1652H623.341C615.25 1666.77 612.686 1675.63 620.046 1695.01C620.046 1695.01 599.995 1717.96 582.967 1719.55C565.938 1721.13 536 1704.51 536 1704.51Z" fill="#FC8D5B"/>
<path d="M823.293 1752C820.706 1719.77 822.563 1705.18 815.053 1683.93C844.167 1689.47 857.879 1688.71 892.232 1674.43L898 1741.71L823.293 1752Z" fill="#FC8D5B"/>
<path d="M530.389 963C504.073 1211.61 510.56 1366.52 530.389 1648.84C565.618 1662.79 585.275 1671.23 624.539 1658.74C663.811 1459.21 680.005 1354.26 684.728 1195.78C738.087 1442.24 770.319 1618.86 816.151 1684.55C852.675 1691.62 870.072 1687.91 897.601 1672.56C901.086 1422.35 881.759 1260.25 839.344 963C722.021 1012.88 654.594 1016.1 530.389 963Z" fill="#222628"/>
<path d="M705.42 1138.37C714.316 1170.95 722.677 1203.68 730.491 1236.54C738.345 1269.57 745.649 1302.73 752.402 1336C759.123 1369.11 765.294 1402.34 770.914 1435.66C776.566 1469.15 781.659 1502.74 786.194 1536.39C790.733 1570.09 794.702 1603.86 798.116 1637.69C798.548 1641.97 798.971 1646.26 799.383 1650.55C799.57 1652.47 802.603 1652.49 802.413 1650.55C799.142 1616.74 795.32 1582.98 790.931 1549.3C786.547 1515.65 781.612 1482.07 776.118 1448.59C770.621 1415.08 764.565 1381.66 757.959 1348.35C751.352 1315.05 744.191 1281.86 736.484 1248.79C728.776 1215.74 720.518 1182.81 711.713 1150.03C710.597 1145.87 709.472 1141.71 708.339 1137.56C707.832 1135.68 704.905 1136.48 705.42 1138.37Z" fill="white"/>
<path d="M676.549 1136.08C668.596 1168.61 661.181 1201.27 654.325 1234.06C647.438 1266.99 641.112 1300.04 635.345 1333.19C629.61 1366.16 624.434 1399.23 619.816 1432.38C615.225 1465.34 611.185 1498.36 607.7 1531.45C604.179 1564.89 601.228 1598.38 598.852 1631.92C598.559 1636.03 598.277 1640.14 598.004 1644.25C597.873 1646.2 600.907 1646.19 601.034 1644.25C603.268 1610.87 606.056 1577.53 609.415 1544.24C612.777 1510.92 616.699 1477.65 621.19 1444.46C625.677 1411.29 630.731 1378.2 636.34 1345.21C641.92 1312.36 648.055 1279.61 654.737 1246.98C661.454 1214.17 668.726 1181.48 676.553 1148.91C677.515 1144.9 678.489 1140.89 679.468 1136.89C679.935 1134.99 677.012 1134.18 676.549 1136.08Z" fill="white"/>
<path d="M631.165 1788.95L619.879 1686.08C608.966 1706.57 600.802 1715.38 577.764 1720.02C577.764 1720.02 581.067 1713.49 577.764 1701.74C574.461 1689.99 527.942 1692.61 527.942 1692.61C527.942 1692.61 525.975 1709.65 522.436 1720.02C505.515 1769.61 415.635 1781.12 407.928 1797.57C389.485 1874.07 507.847 1876.16 572.534 1804.36C600.611 1797.31 631.165 1788.95 631.165 1788.95Z" fill="#333232"/>
<ellipse cx="602.459" cy="1742.34" rx="7.98259" ry="7.57185" fill="white"/>
<path d="M819.357 1766.84C815.801 1759.12 803.868 1739.79 810.477 1735.21C842.831 1745.33 829.932 1719.86 856.068 1726.2C890.827 1729.73 882.642 1758.05 897.299 1721.46C916.948 1709.28 931.755 1846.92 898.149 1919.55C858.099 1960.53 838.298 1958.69 807.557 1910.33C792.748 1836.22 822.914 1774.55 819.357 1766.84Z" fill="#333232"/>
<ellipse cx="904.694" cy="1759.57" rx="7.98259" ry="7.57185" fill="white"/>
<path d="M423.25 841C427.573 842.153 431.792 843.483 436 845C430.916 852.188 423.299 857.128 415 860C409.334 860.545 404.099 859.524 399 857C398.34 856.01 397.68 855.02 397 854C397.629 853.841 398.258 853.683 398.906 853.52C406.331 851.496 412.375 848.945 417.562 843.125C420 841 420 841 423.25 841Z" fill="white"/>
<path d="M814.062 896.875C814.928 896.884 815.794 896.893 816.686 896.902C818.79 896.926 820.895 896.961 823 897C823.495 897.99 823.495 897.99 824 899C823.432 899.125 822.864 899.251 822.279 899.38C812.059 901.657 802.178 903.877 792.594 908.18C789.628 909.117 787.95 908.866 785 908C785.33 907.01 785.66 906.02 786 905C783.69 905.33 781.38 905.66 779 906C779.99 905.67 780.98 905.34 782 905C782 904.34 782 903.68 782 903C783.978 902.37 785.957 901.747 787.938 901.125C789.04 900.777 790.142 900.429 791.277 900.07C799.049 897.836 805.959 896.712 814.062 896.875Z" fill="#202020"/>
<path d="M312 799C315.662 799.627 318.882 800.645 322.312 802.062C323.196 802.425 324.079 802.787 324.988 803.16C325.652 803.437 326.316 803.714 327 804C327.039 805.16 327.039 805.16 327.078 806.344C327.455 813.268 328.444 818.035 332 824C325.788 822.494 322.183 817.446 318.905 812.272C312 800.818 312 800.818 312 799Z" fill="white"/>
<path d="M638 485C639.695 487.542 640.564 489.313 641.516 492.141C641.795 492.958 642.074 493.775 642.361 494.616C642.801 495.92 642.801 495.92 643.25 497.25C646.235 505.953 649.483 514.498 653 523C654.98 519.04 656.96 515.08 659 511C660.32 511.33 661.64 511.66 663 512C662.319 512.743 661.639 513.485 660.938 514.25C658.716 516.759 658.716 516.759 659.25 519.312C659.497 519.869 659.745 520.426 660 521C655.605 525.004 655.605 525.004 654 526C651 525 651 525 649.697 522.475C649.271 521.371 648.845 520.267 648.406 519.129C647.933 517.914 647.46 516.699 646.973 515.447C646.73 514.808 646.488 514.169 646.239 513.511C645.513 511.597 644.772 509.69 644.027 507.783C638.013 492.191 638.013 492.191 637 487C637.33 486.34 637.66 485.68 638 485Z" fill="#202020"/>
<path d="M757 848.999C757.928 849.329 758.856 849.659 759.812 849.999C768.362 852.393 777.07 850.79 785.672 849.444C789.843 848.886 793.8 848.854 798 848.999C793.541 851.357 788.878 852.679 784.062 854.124C783.169 854.401 782.275 854.678 781.354 854.964C780.485 855.226 779.617 855.487 778.723 855.757C777.543 856.115 777.543 856.115 776.34 856.48C773.827 857.037 771.566 857.089 769 856.999C768.67 856.009 768.34 855.019 768 853.999C766.222 853.306 766.222 853.306 764.125 852.999C760.91 852.319 759.012 851.765 757 848.999Z" fill="#202020"/>
<path d="M796 876.999C792.263 878.476 788.514 879.916 784.751 881.327C782.859 882.044 780.977 882.788 779.096 883.532C770.604 886.692 763.952 887.511 755 885.999C755 885.669 755 885.339 755 884.999C755.638 884.898 756.276 884.796 756.934 884.691C765.792 883.191 774.319 880.786 782.943 878.302C784.609 877.837 784.609 877.837 786.309 877.363C787.307 877.077 788.305 876.791 789.334 876.497C792.003 875.999 793.472 876.1 796 876.999Z" fill="#202020"/>
<path d="M743 410C748.625 412.25 748.625 412.25 751 416C750.34 416 749.68 416 749 416C748.897 416.516 748.794 417.031 748.688 417.562C747.757 420.86 746.386 423.866 745 427C744.67 427 744.34 427 744 427C743.67 421.39 743.34 415.78 743 410Z" fill="#202020"/>
<path d="M923 708C926.917 709.652 929.891 712.304 933.062 715.062C934.213 716.05 935.364 717.037 936.516 718.023C937.094 718.519 937.672 719.015 938.268 719.526C942.454 723.087 946.733 726.537 951 730C950.01 730.33 949.02 730.66 948 731C947.334 730.383 946.667 729.765 945.98 729.129C940.25 723.863 934.431 718.828 928.312 714.008C926.166 712.144 924.595 710.34 923 708Z" fill="#202020"/>
<path d="M877 668C881.75 669.509 884.881 672.156 888.563 675.375C889.408 676.098 889.408 676.098 890.271 676.836C893.304 679.446 896.213 682.124 899 685C894.989 685 894.227 683.618 891.375 680.875C886.872 676.683 882.231 673.222 877 670C876.67 671.32 876.34 672.64 876 674C875.957 672.334 875.959 670.666 876 669C876.33 668.67 876.66 668.34 877 668Z" fill="#202020"/>
<path d="M993 847C993.66 847.33 994.32 847.66 995 848C994.134 848.814 994.134 848.814 993.25 849.645C992.507 850.36 991.765 851.075 991 851.812C990.257 852.52 989.515 853.228 988.75 853.957C986.675 855.931 986.675 855.931 987 859C985.713 859.697 984.421 860.382 983.125 861.062C982.406 861.445 981.686 861.828 980.945 862.223C980.303 862.479 979.661 862.736 979 863C978.34 862.67 977.68 862.34 977 862C981.297 857.582 985.728 853.404 990.398 849.383C991.289 848.614 992.168 847.832 993 847Z" fill="#202020"/>
<path d="M839.34 823.461C840.197 823.763 841.054 824.065 841.938 824.376C845.333 825.554 847.312 826.001 851 826.001C851 826.661 851 827.321 851 828.001C851.99 828.001 852.98 828.001 854 828.001C854.33 827.341 854.66 826.681 855 826.001C855.33 827.651 855.66 829.301 856 831.001C848.667 829.001 841.333 827.001 834 825.001C837 823.001 837 823.001 839.34 823.461Z" fill="#202020"/>
<path d="M614 822C617.161 823.37 617.993 823.989 620 827C620.794 830.663 621.163 834.253 621 838C619.062 840.688 619.062 840.688 617 842C616.01 841.67 615.02 841.34 614 841C614.487 840.442 614.975 839.884 615.477 839.309C618.016 835.46 617.562 831.459 617 827C615.688 823.965 615.688 823.965 614 822Z" fill="#202020"/>
<path d="M829.109 918.708C830.241 918.723 830.241 918.723 831.395 918.737C832.56 918.775 832.56 918.775 833.75 918.814C834.543 918.827 835.336 918.841 836.152 918.855C838.102 918.89 840.051 918.944 842 919.001C842.33 919.661 842.66 920.321 843 921.001C832.11 921.496 832.11 921.496 821 922.001C825.5 918.626 825.5 918.626 829.109 918.708Z" fill="#202020"/>
<path d="M753 419C756.823 422.538 759.402 425.983 761.875 430.562C762.799 432.235 762.799 432.235 763.742 433.941C765.079 437.191 765.011 437.838 764 441C762.35 437.898 760.706 434.793 759.062 431.688C758.594 430.806 758.125 429.925 757.643 429.018C756.971 427.746 756.971 427.746 756.285 426.449C755.871 425.669 755.458 424.889 755.031 424.085C754 422 754 422 753 419Z" fill="#202020"/>
<path d="M865.999 728C866.329 728 866.659 728 866.999 728C867.283 735.25 866.509 741.91 864.999 749C864.669 749 864.339 749 863.999 749C863.775 741.637 864.098 735.13 865.999 728Z" fill="#202020"/>
<path d="M973 564C986.406 575.217 986.406 575.217 988 580C984.666 578.581 982.804 576.901 980.5 574.125C978.578 571.844 976.702 569.71 974.562 567.625C973 566 973 566 973 564Z" fill="#202020"/>
<path d="M796 876.998C793.776 877.868 791.547 878.719 789.312 879.561C788.687 879.808 788.061 880.054 787.416 880.309C783.548 881.747 780.964 882.264 777 880.998C780.085 879.332 783.127 878.261 786.5 877.311C787.438 877.039 788.377 876.767 789.344 876.487C792.008 875.997 793.476 876.111 796 876.998Z" fill="#202020"/>
<path d="M1014 608C1018.88 611.942 1023.06 616.12 1027 621C1026.67 621.66 1026.34 622.32 1026 623C1023.99 620.88 1022 618.755 1020 616.625C1019.43 616.022 1018.86 615.418 1018.27 614.797C1017.72 614.217 1017.18 613.637 1016.62 613.039C1015.87 612.238 1015.87 612.238 1015.1 611.42C1014 610 1014 610 1014 608Z" fill="#202020"/>
<path d="M899 686C902.71 687.578 905.299 689.907 908.25 692.625C909.142 693.442 910.034 694.26 910.953 695.102C911.966 696.041 911.966 696.041 913 697C912.34 697.66 911.68 698.32 911 699C908.997 697.024 906.998 695.044 905 693.062C904.428 692.499 903.855 691.935 903.266 691.354C901.825 689.921 900.41 688.463 899 687C899 686.67 899 686.34 899 686Z" fill="#202020"/>
<path d="M798 849.001C794.065 851.144 790.473 851.955 786 852.001C783.5 851.063 783.5 851.063 782 850.001C787.385 849.084 792.542 848.89 798 849.001Z" fill="#202020"/>
<path d="M672 490C672.66 490.33 673.32 490.66 674 491C673.526 491.577 673.051 492.155 672.562 492.75C670.886 494.85 670.886 494.85 670.562 497.125C670 499 670 499 667.938 500.25C667.298 500.498 666.659 500.745 666 501C667.258 496.492 668.904 493.509 672 490Z" fill="#202020"/>
<path d="M909 499C914.327 500.453 917.364 504.081 921 508C917.056 508 916.176 506.686 913.312 504.062C912.504 503.332 911.696 502.601 910.863 501.848C910.248 501.238 909.634 500.628 909 500C909 499.67 909 499.34 909 499Z" fill="#202020"/>
<path d="M868 714C868.33 714 868.66 714 869 714C869.054 715.604 869.093 717.208 869.125 718.812C869.148 719.706 869.171 720.599 869.195 721.52C869 724 869 724 867 727C866.67 724.36 866.34 721.72 866 719C866.66 719 867.32 719 868 719C868 717.35 868 715.7 868 714Z" fill="#202020"/>
<path d="M916 899C916.99 899.33 917.98 899.66 919 900C916.03 902.475 916.03 902.475 913 905C912.34 904.67 911.68 904.34 911 904C912.65 902.35 914.3 900.7 916 899Z" fill="#202020"/>
<path d="M914 700C917.765 701.722 920.151 703.992 923 707C920 707 920 707 918.395 705.469C917.872 704.819 917.35 704.169 916.812 703.5C916.283 702.85 915.753 702.201 915.207 701.531C914.809 701.026 914.41 700.521 914 700Z" fill="#202020"/>
<path d="M808.449 896.901C809.297 896.904 810.144 896.907 811.018 896.91C812.339 896.923 812.339 896.923 813.688 896.936C815.027 896.943 815.027 896.943 816.393 896.949C818.595 896.961 820.798 896.978 823 896.998C823.33 897.658 823.66 898.318 824 898.998C815.647 899.953 807.402 900.109 799 899.998C801.954 897.044 804.456 896.874 808.449 896.901Z" fill="#202020"/>
<path d="M768 883.998C768 884.988 768 885.978 768 886.998C763.71 886.668 759.42 886.338 755 885.998C755 885.668 755 885.338 755 884.998C759.376 884.405 763.575 883.86 768 883.998Z" fill="#202020"/>
<path d="M323 816C323.619 816.33 324.237 816.66 324.875 817C326.91 818.142 326.91 818.142 329 818C329.99 819.98 330.98 821.96 332 824C328.082 822.694 325.674 821.169 323 818C323 817.34 323 816.68 323 816Z" fill="white"/>
<path d="M420 841C421.65 841.33 423.3 841.66 425 842C424.01 842.33 423.02 842.66 422 843C422 843.66 422 844.32 422 845C420.35 845.66 418.7 846.32 417 847C417.99 845.02 418.98 843.04 420 841Z" fill="white"/>
<path d="M619 829C619.33 829 619.66 829 620 829C620.33 831.97 620.66 834.94 621 838C620.01 838.495 620.01 838.495 619 839C619 835.7 619 832.4 619 829ZM616 839C616.99 839.33 617.98 839.66 619 840C618.34 840.66 617.68 841.32 617 842C616.01 841.67 615.02 841.34 614 841C614.66 840.34 615.32 839.68 616 839Z" fill="#202020"/>
<path d="M638 485C640.458 488.687 641.012 491.697 642 496C638.772 493.188 637.341 491.321 637 487C637.33 486.34 637.66 485.68 638 485Z" fill="#202020"/>
<path d="M743 410C753.737 413.665 759.096 425.482 764.038 434.997C766.356 439.825 768.512 444.538 768 450C769.286 450.12 770.573 450.24 771.898 450.363C776.918 450.924 781.727 451.976 786.625 453.188C787.538 453.411 788.45 453.635 789.39 453.865C791.312 454.338 793.233 454.815 795.153 455.294C797.837 455.959 800.525 456.602 803.215 457.242C841.465 466.56 889.275 478.712 918.617 505.801C920.793 507.809 923.007 509.756 925.25 511.688C928.656 514.664 931.917 517.686 935 521C935 521.66 935 522.32 935 523C935.66 523 936.32 523 937 523C938.41 524.434 938.41 524.434 940.062 526.438C942.752 529.608 945.535 532.586 948.5 535.5C951.781 538.743 954.855 542.07 957.855 545.57C961.401 549.587 965.088 553.472 968.762 557.37C971.72 560.517 974.626 563.695 977.457 566.957C981.092 571.139 984.874 575.168 988.688 579.188C994.011 584.82 999.308 590.475 1004.55 596.18C1008.41 600.37 1012.3 604.53 1016.19 608.688C1019.98 612.737 1023.74 616.8 1027.44 620.938C1032.03 626.086 1036.77 631.104 1041.51 636.117C1045.79 640.651 1049.92 645.289 1054 650C1054.87 650.987 1055.74 651.975 1056.63 652.992C1072.85 671.754 1087.35 690.043 1087.38 715.75C1087.4 716.853 1087.42 717.957 1087.45 719.094C1087.54 744.846 1068.73 766.295 1053 785C1052.5 785.601 1052 786.201 1051.48 786.82C1045.21 794.321 1038.71 801.574 1031.98 808.676C1029.14 811.679 1026.37 814.714 1023.67 817.848C1019.51 822.631 1015.05 827.093 1010.56 831.562C1009.75 832.374 1008.95 833.185 1008.12 834.021C1003.79 838.341 999.395 842.51 994.737 846.471C992.964 848.032 991.323 849.672 989.688 851.375C985.999 855.13 981.947 858.363 977.848 861.656C974.202 864.657 970.741 867.834 967.289 871.055C965 873 965 873 962.523 874.445C959.549 876.278 957.451 878.515 955 881C952.914 882.662 950.824 884.282 948.688 885.875C943.604 889.728 938.726 893.711 934 898C933.118 898.79 932.237 899.58 931.328 900.395C927.094 904.123 927.094 904.123 923 908C920.667 908.041 918.333 908.042 916 908C916 907.34 916 906.68 916 906C914.35 905.67 912.7 905.34 911 905C911.468 904.611 911.936 904.221 912.418 903.82C914.348 901.971 915.728 900.357 917 898C917.089 881.514 897.282 858.664 887 847C884.925 844.917 882.83 842.875 880.664 840.887C878.76 838.728 877.923 836.708 877 834C875.991 833.937 874.981 833.874 873.941 833.809C860.989 832.782 848.98 829.491 836.577 825.724C813.165 819.143 781.433 823.626 760 835C756.725 837.413 756.092 838.429 755.438 842.5C755.676 846.122 755.676 846.122 758.312 848.375C766.536 853.348 776.669 850.853 785.672 849.445C789.843 848.887 793.8 848.855 798 849C795.054 850.589 792.223 851.584 788.992 852.445C779.065 855.167 769.302 857.947 759.875 862.125C759.161 862.437 758.446 862.749 757.71 863.071C753.183 865.16 749.603 867.534 746 871C744.68 874.487 744.68 874.487 745 878C746.841 880.413 748.303 881.652 751 883C762.311 884.517 772.375 881.616 783.162 878.402C784.247 878.083 785.332 877.763 786.449 877.434C787.422 877.135 788.395 876.837 789.397 876.529C792.049 875.99 793.481 876.102 796 877C794.936 877.368 793.871 877.735 792.775 878.114C788.809 879.488 784.851 880.881 780.894 882.28C779.184 882.881 777.472 883.477 775.758 884.069C773.288 884.922 770.825 885.793 768.363 886.668C767.602 886.927 766.84 887.185 766.055 887.451C761.334 889.155 758.251 891.004 755 895C754.083 898.044 754.083 898.044 755 901C759.633 904.809 763.612 906.325 769.61 906.245C774.393 905.755 778.888 904.119 783.438 902.625C793.873 899.267 803.043 896.653 814.062 896.875C814.928 896.884 815.794 896.893 816.686 896.902C818.79 896.926 820.895 896.961 823 897C823.33 897.66 823.66 898.32 824 899C823.164 899.18 823.164 899.18 822.31 899.364C795.877 904.302 795.877 904.302 775 919C774.5 922 774.5 922 775 925C777.972 927.918 780.215 928.43 784.316 928.434C791.862 928.24 798.746 926.214 805.938 924.062C807.237 923.684 808.537 923.307 809.838 922.932C812.214 922.245 814.589 921.551 816.961 920.848C822.399 919.331 827.425 918.806 833.062 918.812C833.81 918.813 834.557 918.814 835.327 918.815C850.979 918.986 850.979 918.986 857 923C854.36 922.67 851.72 922.34 849 922C849.33 922.99 849.66 923.98 850 925C850.192 926.595 850.342 928.195 850.465 929.797C850.58 931.261 850.58 931.261 850.698 932.755C850.777 933.814 850.856 934.874 850.938 935.965C851.022 937.067 851.107 938.17 851.195 939.306C851.375 941.652 851.553 943.998 851.729 946.344C851.995 949.865 852.266 953.385 852.539 956.904C854.184 978.339 855 999.441 855 1021C741.81 1021 628.62 1021 512 1021C512 975.13 512 929.26 512 882C499.79 882 487.58 882 475 882C475 881.67 475 881.34 475 881C487.21 881 499.42 881 512 881C512 873.41 512 865.82 512 858C519.873 855.75 519.873 855.75 523.845 855.134C524.737 854.993 525.629 854.852 526.548 854.707C527.498 854.561 528.447 854.416 529.426 854.266C530.939 854.028 530.939 854.028 532.482 853.785C534.641 853.446 536.799 853.108 538.958 852.772C544.608 851.893 550.255 850.998 555.902 850.102C557.025 849.923 558.147 849.745 559.304 849.562C572.779 847.412 586.215 845.049 599.636 842.587C601.917 842.189 604.205 841.827 606.497 841.499C607.583 841.342 608.67 841.185 609.789 841.023C611.227 840.833 611.227 840.833 612.694 840.638C615.358 840.172 615.358 840.172 617 837C617.317 834.589 617.317 834.589 617.25 832C617.258 830.701 617.258 830.701 617.266 829.375C617.154 826.734 617.154 826.734 615 824C612.744 823.007 610.575 822.176 608.246 821.398C607.563 821.161 606.879 820.924 606.175 820.679C603.932 819.902 601.685 819.139 599.438 818.375C597.872 817.834 596.307 817.293 594.742 816.75C591.606 815.662 588.469 814.579 585.331 813.499C579.744 811.571 574.182 809.576 568.625 807.562C566.658 806.852 564.69 806.141 562.723 805.43C561.681 805.053 560.64 804.676 559.567 804.288C556.123 803.044 552.677 801.804 549.23 800.566C545.981 799.398 542.731 798.228 539.482 797.058C537.891 796.486 536.299 795.913 534.708 795.342C532.462 794.536 530.217 793.727 527.973 792.918C527.316 792.683 526.66 792.448 525.984 792.205C520.596 790.259 515.329 788.132 510 786C509.67 776.76 509.34 767.52 509 758C504.38 765.26 499.76 772.52 495 780C484.369 777.638 484.369 777.638 479.562 776.125C478.553 775.818 477.544 775.511 476.504 775.195C473.495 773.759 473.227 773.021 472 770C471.535 768.19 471.129 766.364 470.767 764.53C470.546 763.428 470.325 762.326 470.097 761.191C469.864 759.997 469.631 758.804 469.391 757.574C469.143 756.331 468.896 755.088 468.641 753.807C467.975 750.459 467.315 747.11 466.658 743.761C465.978 740.306 465.292 736.852 464.607 733.398C463.063 725.601 461.529 717.801 460 710C459.811 709.034 459.621 708.069 459.426 707.074C457.051 694.959 454.724 682.836 452.428 670.707C451.795 667.375 451.155 664.045 450.515 660.715C450.141 658.745 449.774 656.773 449.411 654.801C448.785 651.407 448.143 648.016 447.5 644.625C447.216 643.046 447.216 643.046 446.926 641.434C445.675 634.944 444.363 629.077 439.297 624.441C438.786 624.151 438.276 623.861 437.75 623.562C436.842 623.047 435.935 622.531 435 622C437.182 613.643 440.495 605.909 444.062 598.062C444.35 597.425 444.638 596.788 444.935 596.132C461.92 558.594 487.334 505.771 525.438 486.125C526.663 485.492 526.663 485.492 527.914 484.846C546.312 475.647 566.289 470.26 586.028 464.756C587.426 464.366 588.824 463.972 590.22 463.573C593.258 462.715 596.267 461.948 599.367 461.347C604.504 460.472 604.504 460.472 608.292 457.244C609.195 454.985 609.75 452.818 610.25 450.438C610.688 448.805 611.138 447.176 611.602 445.551C611.824 444.767 612.046 443.982 612.274 443.174C613.841 438.479 616.764 434.679 620 431C620.606 430.234 621.212 429.469 621.836 428.68C624 427 624 427 627.25 427.25C628.158 427.497 629.065 427.745 630 428C630.133 429.265 630.266 430.529 630.402 431.832C630.581 433.492 630.759 435.152 630.938 436.812C631.025 437.646 631.112 438.479 631.201 439.338C631.288 440.14 631.375 440.943 631.465 441.77C631.543 442.508 631.622 443.246 631.703 444.007C631.972 446.203 631.972 446.203 633 449C633.228 450.982 633.452 452.964 633.645 454.949C635.957 478.687 643.657 501.126 653 523C653.322 522.366 653.643 521.732 653.975 521.079C666.242 496.991 666.242 496.991 673 488C673.523 487.283 674.047 486.567 674.586 485.828C679.198 480.023 685.159 476.164 691.292 472.128C719.476 454.035 719.476 454.035 741 429C741.387 428.406 741.773 427.811 742.172 427.199C743.404 423.926 743.21 420.694 743.125 417.25C743.111 416.204 743.111 416.204 743.098 415.137C743.074 413.424 743.038 411.712 743 410Z" fill="#202020"/>
<path d="M799.729 914.406C803.748 890.535 808.927 867.187 815.416 843.767C825.105 808.789 835.234 773.599 842.492 738C849.042 819.607 847.858 938.671 847 1020.5C763.5 1020.5 602 1031 506 994.74C558.062 999.332 614.455 998.469 665.764 992.098C702.183 987.578 746.914 984.47 775.563 960.584C790.458 948.163 796.685 932.458 799.729 914.406Z" fill="#222628"/>
<path d="M1011 603C1035.5 630.5 1081.27 659.071 1087 724C1090 758 997.511 846.053 972.5 865.5C1000.5 832.841 1031.5 761.5 1008 718C1004.59 689.947 1016.25 626.962 1008 599.5C1008.38 600.046 1010.62 602.454 1011 603Z" fill="#222628"/>
<path d="M676.628 547.195C670.026 608.715 665.515 670.452 663.151 732.285C661.974 763.02 661.327 793.777 661.205 824.534C661.082 855.074 661.534 885.619 661.26 916.159C660.954 950.501 659.693 984.866 655.712 1019C655.394 1021.72 659.666 1021.7 659.978 1019C667.098 957.957 665.431 896.42 665.448 835.089C665.465 773.586 667.561 712.088 671.777 650.73C674.152 616.164 677.197 581.644 680.893 547.195C681.189 544.468 676.918 544.485 676.628 547.195Z" fill="#222628"/>
<path d="M656.667 575.275C664.903 575.275 664.92 562.473 656.667 562.473C648.432 562.478 648.415 575.275 656.667 575.275Z" fill="#222628"/>
<path d="M649.142 650.494C657.378 650.494 657.394 637.691 649.142 637.691C640.906 637.691 640.895 650.494 649.142 650.494Z" fill="#222628"/>
<path d="M644.298 735.853C652.534 735.853 652.551 723.051 644.298 723.051C636.062 723.051 636.051 735.853 644.298 735.853Z" fill="#222628"/>
<path d="M644.298 810.224C652.534 810.224 652.551 797.422 644.298 797.422C636.062 797.427 636.051 810.224 644.298 810.224Z" fill="#222628"/>
<path d="M642.113 884.279C650.349 884.279 650.365 871.477 642.113 871.477C633.877 871.477 633.86 884.279 642.113 884.279Z" fill="#222628"/>
<path d="M637.621 956.076C645.856 956.076 645.873 943.273 637.621 943.273C629.385 943.273 629.368 956.076 637.621 956.076Z" fill="#222628"/>
<path d="M874.232 655.602C873.2 612.299 875.531 568.946 881.263 525.949C882.919 513.554 884.876 501.192 887.09 488.869C887.608 485.992 882.802 484.754 882.283 487.653C874.522 530.773 870.094 574.388 869.18 618.087C868.918 630.594 868.946 643.101 869.241 655.608C869.319 658.541 874.304 658.552 874.232 655.602Z" fill="#222628"/>
<path d="M506.903 684.603C507.934 641.299 505.604 597.946 499.866 554.949C498.21 542.554 496.253 530.192 494.039 517.869C493.52 514.992 498.327 513.754 498.846 516.653C506.607 559.773 511.035 603.388 511.949 647.087C512.211 659.594 512.183 672.101 511.882 684.608C511.815 687.541 506.83 687.552 506.903 684.603Z" fill="#222628"/>
<path d="M461.849 704.021C431.03 688.341 402.068 669.115 375.655 646.794C368.099 640.41 360.767 633.769 353.646 626.899C351.667 624.986 354.684 621.975 356.663 623.882C381.404 647.748 408.849 668.724 438.413 686.272C446.782 691.24 455.319 695.919 463.995 700.335C466.449 701.584 464.291 705.27 461.849 704.021Z" fill="#222628"/>
<path d="M842.599 1020H855.1C846.599 869 844.566 789.569 841.6 645C835.796 647.289 830.327 646.658 824.1 646C823.457 779.422 819.164 860.118 842.599 1020Z" stroke="white" stroke-width="5"/>
<path d="M893 820.5L877 833.5C887 857.5 908.5 866 918 898L911 905L916 906V908L923.5 908.5L945 889.5L893 820.5Z" fill="white"/>
<path d="M629.155 1017V1007.22H631.36V1010.98H634.735V1007.22H636.955V1017H634.735V1012.92H631.36V1017H629.155ZM642.277 1017.18C641.647 1017.18 641.052 1017.03 640.492 1016.73C639.942 1016.42 639.497 1015.97 639.157 1015.39C638.817 1014.8 638.647 1014.1 638.647 1013.28C638.647 1012.45 638.817 1011.74 639.157 1011.16C639.497 1010.58 639.942 1010.14 640.492 1009.84C641.052 1009.53 641.647 1009.38 642.277 1009.38C642.907 1009.38 643.497 1009.53 644.047 1009.84C644.597 1010.14 645.042 1010.58 645.382 1011.16C645.722 1011.74 645.892 1012.45 645.892 1013.28C645.892 1014.1 645.722 1014.8 645.382 1015.39C645.042 1015.97 644.597 1016.42 644.047 1016.73C643.497 1017.03 642.907 1017.18 642.277 1017.18ZM642.277 1015.39C642.727 1015.39 643.067 1015.2 643.297 1014.82C643.527 1014.43 643.642 1013.92 643.642 1013.28C643.642 1012.63 643.527 1012.11 643.297 1011.73C643.067 1011.35 642.727 1011.16 642.277 1011.16C641.817 1011.16 641.472 1011.35 641.242 1011.73C641.022 1012.11 640.912 1012.63 640.912 1013.28C640.912 1013.92 641.022 1014.43 641.242 1014.82C641.472 1015.2 641.817 1015.39 642.277 1015.39ZM649.519 1017.18C649.029 1017.18 648.524 1017.08 648.004 1016.89C647.494 1016.7 647.049 1016.45 646.669 1016.14L647.659 1014.76C647.999 1015.01 648.324 1015.21 648.634 1015.35C648.954 1015.48 649.269 1015.54 649.579 1015.54C649.909 1015.54 650.149 1015.49 650.299 1015.38C650.449 1015.26 650.524 1015.1 650.524 1014.91C650.524 1014.74 650.449 1014.6 650.299 1014.49C650.159 1014.38 649.974 1014.28 649.744 1014.19C649.514 1014.09 649.269 1013.99 649.009 1013.89C648.709 1013.77 648.409 1013.62 648.109 1013.44C647.819 1013.26 647.574 1013.03 647.374 1012.75C647.174 1012.46 647.074 1012.11 647.074 1011.7C647.074 1011.01 647.334 1010.45 647.854 1010.02C648.384 1009.59 649.074 1009.38 649.924 1009.38C650.494 1009.38 650.994 1009.48 651.424 1009.68C651.864 1009.87 652.239 1010.08 652.549 1010.32L651.559 1011.64C651.299 1011.44 651.039 1011.29 650.779 1011.18C650.519 1011.07 650.259 1011.01 649.999 1011.01C649.429 1011.01 649.144 1011.21 649.144 1011.6C649.144 1011.84 649.284 1012.02 649.564 1012.15C649.854 1012.27 650.189 1012.4 650.569 1012.54C650.889 1012.65 651.199 1012.8 651.499 1012.98C651.809 1013.15 652.064 1013.38 652.264 1013.67C652.474 1013.95 652.579 1014.32 652.579 1014.78C652.579 1015.45 652.319 1016.02 651.799 1016.49C651.279 1016.95 650.519 1017.18 649.519 1017.18ZM656.552 1017.18C655.632 1017.18 654.972 1016.91 654.572 1016.38C654.182 1015.85 653.987 1015.16 653.987 1014.3V1011.28H652.967V1009.65L654.107 1009.56L654.362 1007.58H656.192V1009.56H657.977V1011.28H656.192V1014.27C656.192 1014.69 656.277 1014.99 656.447 1015.18C656.627 1015.36 656.862 1015.45 657.152 1015.45C657.272 1015.45 657.392 1015.44 657.512 1015.41C657.642 1015.38 657.757 1015.34 657.857 1015.3L658.202 1016.91C658.012 1016.97 657.777 1017.03 657.497 1017.09C657.227 1017.15 656.912 1017.18 656.552 1017.18ZM659.429 1017V1009.56H661.634V1017H659.429ZM660.524 1008.46C660.154 1008.46 659.854 1008.36 659.624 1008.15C659.394 1007.94 659.279 1007.66 659.279 1007.31C659.279 1006.96 659.394 1006.68 659.624 1006.47C659.854 1006.26 660.154 1006.15 660.524 1006.15C660.894 1006.15 661.194 1006.26 661.424 1006.47C661.654 1006.68 661.769 1006.96 661.769 1007.31C661.769 1007.66 661.654 1007.94 661.424 1008.15C661.194 1008.36 660.894 1008.46 660.524 1008.46ZM663.575 1017V1009.56H665.375L665.525 1010.5H665.585C665.905 1010.2 666.255 1009.94 666.635 1009.72C667.025 1009.49 667.47 1009.38 667.97 1009.38C668.78 1009.38 669.365 1009.65 669.725 1010.19C670.095 1010.72 670.28 1011.45 670.28 1012.38V1017H668.075V1012.66C668.075 1012.12 668 1011.75 667.85 1011.55C667.71 1011.35 667.48 1011.25 667.16 1011.25C666.88 1011.25 666.64 1011.32 666.44 1011.45C666.24 1011.57 666.02 1011.74 665.78 1011.97V1017H663.575ZM674.814 1020.17C674.234 1020.17 673.709 1020.1 673.239 1019.97C672.769 1019.84 672.394 1019.64 672.114 1019.36C671.834 1019.08 671.694 1018.72 671.694 1018.28C671.694 1017.68 672.049 1017.18 672.759 1016.77V1016.71C672.569 1016.58 672.404 1016.42 672.264 1016.22C672.134 1016.02 672.069 1015.76 672.069 1015.45C672.069 1015.18 672.149 1014.92 672.309 1014.67C672.469 1014.42 672.669 1014.22 672.909 1014.06V1014C672.649 1013.82 672.414 1013.56 672.204 1013.22C672.004 1012.88 671.904 1012.49 671.904 1012.06C671.904 1011.46 672.049 1010.97 672.339 1010.58C672.629 1010.18 673.009 1009.88 673.479 1009.68C673.949 1009.48 674.449 1009.38 674.979 1009.38C675.419 1009.38 675.804 1009.44 676.134 1009.56H678.849V1011.16H677.664C677.734 1011.27 677.789 1011.41 677.829 1011.58C677.879 1011.75 677.904 1011.94 677.904 1012.14C677.904 1012.71 677.774 1013.18 677.514 1013.55C677.254 1013.92 676.904 1014.19 676.464 1014.37C676.024 1014.55 675.529 1014.64 674.979 1014.64C674.689 1014.64 674.389 1014.59 674.079 1014.49C673.899 1014.64 673.809 1014.83 673.809 1015.05C673.809 1015.24 673.894 1015.38 674.064 1015.47C674.234 1015.56 674.524 1015.6 674.934 1015.6H676.134C677.054 1015.6 677.754 1015.75 678.234 1016.05C678.724 1016.34 678.969 1016.82 678.969 1017.49C678.969 1018.01 678.799 1018.46 678.459 1018.86C678.119 1019.27 677.639 1019.59 677.019 1019.82C676.399 1020.05 675.664 1020.17 674.814 1020.17ZM674.979 1013.31C675.269 1013.31 675.509 1013.2 675.699 1012.99C675.899 1012.78 675.999 1012.47 675.999 1012.06C675.999 1011.67 675.899 1011.38 675.699 1011.18C675.509 1010.97 675.269 1010.86 674.979 1010.86C674.689 1010.86 674.444 1010.96 674.244 1011.16C674.054 1011.36 673.959 1011.66 673.959 1012.06C673.959 1012.47 674.054 1012.78 674.244 1012.99C674.444 1013.2 674.689 1013.31 674.979 1013.31ZM675.159 1018.79C675.659 1018.79 676.069 1018.7 676.389 1018.52C676.709 1018.34 676.869 1018.12 676.869 1017.87C676.869 1017.64 676.769 1017.49 676.569 1017.41C676.379 1017.33 676.099 1017.29 675.729 1017.29H674.964C674.714 1017.29 674.504 1017.28 674.334 1017.26C674.174 1017.25 674.034 1017.23 673.914 1017.2C673.644 1017.44 673.509 1017.68 673.509 1017.93C673.509 1018.21 673.659 1018.42 673.959 1018.56C674.269 1018.71 674.669 1018.79 675.159 1018.79ZM687.434 1017.18C686.614 1017.18 685.859 1016.99 685.169 1016.61C684.479 1016.23 683.924 1015.67 683.504 1014.93C683.094 1014.18 682.889 1013.26 682.889 1012.17C682.889 1011.09 683.099 1010.17 683.519 1009.41C683.949 1008.64 684.514 1008.05 685.214 1007.65C685.924 1007.24 686.689 1007.04 687.509 1007.04C688.139 1007.04 688.704 1007.17 689.204 1007.43C689.704 1007.68 690.119 1007.97 690.449 1008.31L689.279 1009.72C689.029 1009.49 688.764 1009.31 688.484 1009.17C688.214 1009.02 687.904 1008.94 687.554 1008.94C687.114 1008.94 686.709 1009.07 686.339 1009.32C685.979 1009.57 685.689 1009.93 685.469 1010.4C685.259 1010.87 685.154 1011.43 685.154 1012.09C685.154 1013.09 685.369 1013.87 685.799 1014.43C686.229 1014.99 686.804 1015.27 687.524 1015.27C687.924 1015.27 688.279 1015.18 688.589 1015C688.909 1014.82 689.189 1014.61 689.429 1014.36L690.599 1015.74C689.779 1016.7 688.724 1017.18 687.434 1017.18ZM691.905 1017V1009.56H694.11V1017H691.905ZM693 1008.46C692.63 1008.46 692.33 1008.36 692.1 1008.15C691.87 1007.94 691.755 1007.66 691.755 1007.31C691.755 1006.96 691.87 1006.68 692.1 1006.47C692.33 1006.26 692.63 1006.15 693 1006.15C693.37 1006.15 693.67 1006.26 693.9 1006.47C694.13 1006.68 694.245 1006.96 694.245 1007.31C694.245 1007.66 694.13 1007.94 693.9 1008.15C693.67 1008.36 693.37 1008.46 693 1008.46ZM697.925 1017.18C697.245 1017.18 696.705 1016.96 696.305 1016.53C695.905 1016.09 695.705 1015.56 695.705 1014.93C695.705 1014.15 696.035 1013.54 696.695 1013.1C697.355 1012.66 698.42 1012.36 699.89 1012.21C699.87 1011.88 699.77 1011.62 699.59 1011.43C699.42 1011.23 699.13 1011.13 698.72 1011.13C698.41 1011.13 698.095 1011.19 697.775 1011.31C697.455 1011.43 697.115 1011.6 696.755 1011.81L695.96 1010.35C696.43 1010.06 696.93 1009.83 697.46 1009.65C698 1009.47 698.56 1009.38 699.14 1009.38C700.09 1009.38 700.82 1009.65 701.33 1010.2C701.84 1010.75 702.095 1011.6 702.095 1012.74V1017H700.295L700.145 1016.23H700.085C699.775 1016.51 699.44 1016.74 699.08 1016.92C698.73 1017.09 698.345 1017.18 697.925 1017.18ZM698.675 1015.47C698.925 1015.47 699.14 1015.41 699.32 1015.3C699.51 1015.18 699.7 1015.03 699.89 1014.84V1013.53C699.11 1013.63 698.57 1013.79 698.27 1014.01C697.97 1014.22 697.82 1014.47 697.82 1014.76C697.82 1015 697.895 1015.18 698.045 1015.3C698.205 1015.41 698.415 1015.47 698.675 1015.47ZM703.96 1017V1009.56H705.76L705.91 1010.52H705.97C706.28 1010.21 706.61 1009.94 706.96 1009.72C707.31 1009.49 707.73 1009.38 708.22 1009.38C708.75 1009.38 709.175 1009.49 709.495 1009.71C709.825 1009.92 710.085 1010.22 710.275 1010.62C710.605 1010.28 710.955 1009.99 711.325 1009.75C711.695 1009.5 712.125 1009.38 712.615 1009.38C713.415 1009.38 714 1009.65 714.37 1010.19C714.75 1010.72 714.94 1011.45 714.94 1012.38V1017H712.735V1012.66C712.735 1012.12 712.66 1011.75 712.51 1011.55C712.37 1011.35 712.14 1011.25 711.82 1011.25C711.45 1011.25 711.025 1011.49 710.545 1011.97V1017H708.34V1012.66C708.34 1012.12 708.265 1011.75 708.115 1011.55C707.975 1011.35 707.745 1011.25 707.425 1011.25C707.055 1011.25 706.635 1011.49 706.165 1011.97V1017H703.96ZM716.822 1017V1009.56H719.027V1017H716.822ZM717.917 1008.46C717.547 1008.46 717.247 1008.36 717.017 1008.15C716.787 1007.94 716.672 1007.66 716.672 1007.31C716.672 1006.96 716.787 1006.68 717.017 1006.47C717.247 1006.26 717.547 1006.15 717.917 1006.15C718.287 1006.15 718.587 1006.26 718.817 1006.47C719.047 1006.68 719.162 1006.96 719.162 1007.31C719.162 1007.66 719.047 1007.94 718.817 1008.15C718.587 1008.36 718.287 1008.46 717.917 1008.46ZM723.157 1017.18C722.667 1017.18 722.162 1017.08 721.642 1016.89C721.132 1016.7 720.687 1016.45 720.307 1016.14L721.297 1014.76C721.637 1015.01 721.962 1015.21 722.272 1015.35C722.592 1015.48 722.907 1015.54 723.217 1015.54C723.547 1015.54 723.787 1015.49 723.937 1015.38C724.087 1015.26 724.162 1015.1 724.162 1014.91C724.162 1014.74 724.087 1014.6 723.937 1014.49C723.797 1014.38 723.612 1014.28 723.382 1014.19C723.152 1014.09 722.907 1013.99 722.647 1013.89C722.347 1013.77 722.047 1013.62 721.747 1013.44C721.457 1013.26 721.212 1013.03 721.012 1012.75C720.812 1012.46 720.712 1012.11 720.712 1011.7C720.712 1011.01 720.972 1010.45 721.492 1010.02C722.022 1009.59 722.712 1009.38 723.562 1009.38C724.132 1009.38 724.632 1009.48 725.062 1009.68C725.502 1009.87 725.877 1010.08 726.187 1010.32L725.197 1011.64C724.937 1011.44 724.677 1011.29 724.417 1011.18C724.157 1011.07 723.897 1011.01 723.637 1011.01C723.067 1011.01 722.782 1011.21 722.782 1011.6C722.782 1011.84 722.922 1012.02 723.202 1012.15C723.492 1012.27 723.827 1012.4 724.207 1012.54C724.527 1012.65 724.837 1012.8 725.137 1012.98C725.447 1013.15 725.702 1013.38 725.902 1013.67C726.112 1013.95 726.217 1014.32 726.217 1014.78C726.217 1015.45 725.957 1016.02 725.437 1016.49C724.917 1016.95 724.157 1017.18 723.157 1017.18Z" fill="white"/>
<path d="M240.035 557.414C242.085 557.997 244.09 558.659 246.104 559.36C247.26 559.743 247.26 559.743 248.439 560.134C250.128 560.696 251.814 561.263 253.498 561.836C257.275 563.121 261.062 564.375 264.848 565.632C266.927 566.323 269.004 567.015 271.082 567.709C282.727 571.594 294.419 575.335 306.109 579.085C332.026 587.401 357.895 595.865 383.749 604.376C384.982 604.781 384.982 604.781 386.239 605.195C388.673 605.997 391.107 606.798 393.541 607.599C394.323 607.857 395.104 608.114 395.909 608.379C399.676 609.62 403.443 610.863 407.207 612.111C413.119 614.07 419.031 616.024 424.977 617.88C426.242 618.281 426.242 618.281 427.533 618.69C428.974 619.146 430.419 619.59 431.868 620.02C437.579 621.839 441.6 624.743 444.78 629.876C446.097 633.253 446.853 636.434 447.499 640.001C447.715 641.176 447.932 642.352 448.155 643.563C448.341 644.575 448.341 644.575 448.531 645.608C449.103 648.533 449.743 651.441 450.381 654.352C452.071 662.177 453.508 670.041 454.929 677.919C457.117 690.017 459.356 702.094 461.935 714.116C464.798 727.573 467.353 741.095 469.965 754.602C470.346 756.564 470.727 758.527 471.108 760.489C471.284 761.403 471.46 762.318 471.641 763.26C471.805 764.104 471.969 764.948 472.138 765.818C472.281 766.556 472.423 767.295 472.57 768.055C473.007 770.2 473.007 770.2 473.999 773.001C476.097 774.071 476.097 774.071 478.69 774.825C480.106 775.284 480.106 775.284 481.551 775.753C482.545 776.061 483.538 776.37 484.561 776.688C485.558 777.008 486.555 777.329 487.583 777.659C490.051 778.45 492.523 779.23 494.999 780.001C495.271 779.271 495.544 778.542 495.824 777.791C496.951 775.113 498.235 772.81 499.784 770.356C500.314 769.515 500.845 768.674 501.391 767.807C501.942 766.943 502.493 766.079 503.061 765.188C503.616 764.304 504.171 763.421 504.743 762.51C507.807 757.677 507.807 757.677 508.999 756.001C509.329 756.001 509.659 756.001 509.999 756.001C510.329 765.901 510.659 775.801 510.999 786.001C513.596 786.907 516.193 787.813 518.87 788.747C535.947 794.709 553.02 800.68 570.026 806.844C574.449 808.447 578.88 810.025 583.315 811.594C584.576 812.041 585.836 812.488 587.097 812.935C589.485 813.781 591.874 814.624 594.263 815.464C599.778 817.421 605.261 819.444 610.698 821.61C611.669 821.996 612.641 822.383 613.642 822.781C615.999 824.001 615.999 824.001 617.999 827.001C618.299 829.34 618.299 829.34 618.311 831.938C618.328 832.793 618.345 833.647 618.362 834.528C617.901 837.662 617.255 838.76 614.999 841.001C612.363 841.728 610.003 842.212 607.317 842.579C605.77 842.821 604.223 843.062 602.675 843.303C601.891 843.419 601.107 843.535 600.3 843.655C596.871 844.17 593.459 844.77 590.043 845.363C588.71 845.59 587.376 845.816 586.043 846.042C585.031 846.213 585.031 846.213 584 846.387C582.959 846.563 582.959 846.563 581.897 846.743C580.404 846.996 578.91 847.248 577.417 847.501C574.306 848.028 571.195 848.554 568.085 849.079C564.969 849.606 561.853 850.133 558.738 850.661C550.376 852.079 542.014 853.489 533.649 854.885C529.238 855.622 524.829 856.371 520.422 857.13C517.622 857.609 514.822 858.08 512.021 858.549C510.117 858.87 508.215 859.202 506.313 859.535C494.614 861.475 484.17 862.096 472.885 858.114C471.987 857.815 471.089 857.516 470.164 857.208C467.331 856.261 464.509 855.288 461.686 854.313C459.81 853.679 457.933 853.047 456.055 852.417C453.299 851.491 450.544 850.563 447.792 849.628C434.027 844.865 434.027 844.865 419.999 841.001C419.755 841.597 419.511 842.194 419.26 842.809C417.764 845.408 416.32 846.444 413.811 848.063C413.075 848.549 412.339 849.035 411.581 849.536C402.24 854.835 393.046 855.314 382.667 853.38C365.572 848.541 338.336 837.077 329.124 820.876C327.216 817.095 326.638 813.912 326.366 809.696C326.255 808.091 326.255 808.091 326.143 806.454C326.095 805.645 326.048 804.835 325.999 804.001C325.48 803.824 324.961 803.647 324.427 803.465C318.988 801.609 313.554 799.741 308.121 797.867C306.098 797.17 304.074 796.477 302.049 795.786C299.124 794.789 296.204 793.781 293.284 792.77C292.39 792.468 291.495 792.166 290.574 791.854C282.189 788.93 273.952 785.722 268.999 778.001C265.268 768.52 263.771 757.999 261.686 748.063C260.882 744.262 260.075 740.461 259.268 736.661C259.071 735.729 258.873 734.798 258.67 733.838C257.123 726.547 255.514 719.271 253.874 712.001C251.654 702.127 249.585 692.228 247.561 682.313C243.412 661.991 238.952 641.742 234.434 621.5C232.918 614.704 231.41 607.906 229.908 601.107C229.329 598.489 228.746 595.873 228.16 593.258C227.428 589.987 226.711 586.713 225.999 583.438C225.791 582.524 225.583 581.61 225.369 580.669C222.059 565.192 222.059 565.192 225.936 558.813C230.453 556.14 234.933 556.378 240.035 557.414Z" fill="#C8CFD8"/>
<path d="M708.002 194.625C708.821 194.61 709.641 194.596 710.486 194.582C716.804 194.634 720.734 196.488 726.002 200C726.294 202.711 726.294 202.711 726.189 206.16C726.163 207.42 726.138 208.68 726.111 209.978C726.093 210.645 726.074 211.312 726.055 211.999C725.7 225.756 726.183 238.558 730.537 251.714C736.032 268.815 735.612 285.233 735.002 303C738.444 302.36 738.444 302.36 740.748 299.636C741.306 298.663 741.864 297.69 742.439 296.687C745.557 291.269 749.086 287.342 755.002 285C761.447 283.958 766.696 285.272 772.002 289C777.842 293.505 779.267 299.105 780.537 306.175C782.263 320.375 781.787 336.679 773.056 348.671C766.513 356.378 760.644 360.902 750.439 361.812C748.627 361.896 746.815 361.966 745.002 362C744.941 362.894 744.88 363.789 744.818 364.71C744.052 375.768 744.052 375.768 743.439 381.125C742.631 388.989 742.879 396.851 743.431 404.726C743.503 405.86 743.576 406.995 743.65 408.164C743.802 410.48 743.976 412.796 744.173 415.109C744.65 423.476 743.109 428.371 738.002 435C737.309 435.916 736.617 436.833 735.904 437.777C724.652 450.147 711.302 459.881 697.396 469.046C696.605 469.569 695.814 470.091 694.998 470.629C693.468 471.634 691.933 472.634 690.393 473.626C682.79 478.599 676.112 483.911 671.189 491.625C670.782 492.246 670.376 492.867 669.957 493.506C664.751 501.662 660.424 510.334 656.08 518.969C655.002 521 655.002 521 653.002 524C649.39 516.363 646.267 508.645 643.439 500.687C643.048 499.589 642.656 498.491 642.253 497.36C636.914 482.239 633.441 467.804 632.287 451.765C632.027 449.243 631.569 446.95 630.939 444.5C629.583 439.046 629.831 433.583 630.002 428C629.407 427.853 628.813 427.706 628.201 427.554C609.146 422.398 593.671 408.742 583.587 391.984C573.862 373.684 570.214 353.395 568.002 333C567.918 332.27 567.835 331.541 567.749 330.79C567.119 324.991 566.842 319.276 566.834 313.445C566.829 312.557 566.825 311.67 566.821 310.755C566.811 307.878 566.811 305.001 566.814 302.125C566.814 301.137 566.814 300.15 566.814 299.132C566.826 285.443 567.106 271.793 567.877 258.125C567.916 257.406 567.955 256.688 567.995 255.948C568.711 243.221 569.541 230.286 573.377 218.062C573.67 217.048 573.67 217.048 573.97 216.013C575.475 211.038 577.586 206.6 580.002 202C580.924 202.09 580.924 202.09 581.865 202.183C612.71 205.123 640.71 204.43 671.046 198.73C683.308 196.441 695.517 194.768 708.002 194.625Z" fill="#FD9963"/>
<path d="M654.881 121.609C657.367 121.625 659.851 121.609 662.336 121.59C676.996 121.569 691.498 123.075 705.313 128.25C706.145 128.553 706.976 128.856 707.834 129.168C719.103 133.392 729.014 138.914 738 147C738.484 147.435 738.967 147.869 739.465 148.317C749.64 157.59 758.216 168.483 762 182C762 183.32 762 184.64 762 186C762.629 185.919 763.258 185.838 763.906 185.754C769.111 185.37 772.305 185.623 776.375 189.063C779.751 192.438 781.931 195.708 784 200C784.805 201.64 784.805 201.64 785.625 203.313C789.298 213.162 789.364 223.062 789.313 233.438C789.311 234.192 789.309 234.947 789.307 235.725C789.227 255.491 787.444 275.704 777 293C774.458 291.827 772.271 290.509 769.938 288.938C765.053 285.716 760.707 285.238 755 286C747.761 288.413 744.549 294.232 740.859 300.551C740.246 301.359 739.632 302.167 739 303C737.68 303 736.36 303 735 303C735.006 302.106 735.013 301.213 735.019 300.292C735.058 282.248 734.205 266.091 728.692 248.762C725.318 237.905 724.694 227.182 724.813 215.875C724.814 214.069 724.814 214.069 724.815 212.227C724.859 203.424 724.859 203.424 726 200C724.677 199.314 723.341 198.652 722 198C721.305 197.655 720.611 197.309 719.895 196.953C702.799 191.324 679.568 198.211 662.543 201.379C635.764 206.243 606.806 207.951 580 202C579.722 202.839 579.443 203.679 579.156 204.543C578.374 206.882 577.582 209.218 576.781 211.551C572.639 223.713 570.468 235.274 569 248C564.325 240.988 564.987 230.421 566.495 222.351C567.699 216.879 569.079 211.455 570.541 206.046C571.11 203.862 571.11 203.862 571 201C569.427 199.775 569.427 199.775 567.375 198.75C560.515 194.695 556.623 189.455 554 182C550.554 168.143 553.154 152.443 560.078 140.074C561.528 137.808 562.559 136.221 565 135C565.309 135.825 565.619 136.65 565.938 137.5C567.881 140.455 567.881 140.455 571.926 140.379C577.738 140.209 582.82 138.385 588.25 136.438C589.294 136.078 590.338 135.718 591.414 135.347C594.614 134.244 597.808 133.124 601 132C604.662 130.715 608.329 129.447 612 128.188C612.774 127.91 613.548 127.633 614.345 127.348C627.706 122.76 640.867 121.502 654.881 121.609Z" fill="#202020"/>
<path d="M848 828.002C857.886 831.131 867.71 832.095 878 833.002C878.206 833.935 878.206 833.935 878.416 834.888C879.133 837.484 880.244 838.714 882.062 840.689C882.974 841.689 882.974 841.689 883.905 842.709C885.213 844.141 886.527 845.566 887.851 846.983C893.203 852.818 897.699 859.028 902.062 865.627C902.761 866.678 903.459 867.73 904.178 868.814C917.288 888.886 917.288 888.886 918 898.002C916.339 900.882 913.522 902.874 911 905.002C910.505 905.423 910.01 905.844 909.5 906.278C896.622 917.129 884.736 925 867.308 924.207C862.718 923.799 858.212 922.859 853.688 922.002C831.376 917.962 812.303 921.901 791 929.002C785.572 929.473 780.69 929.847 775.75 927.377C774 925.002 774 925.002 773.438 922.064C774.151 918.182 775.247 916.845 778 914.002C780.78 912.239 783.695 910.866 786.688 909.502C787.525 909.113 788.362 908.724 789.224 908.324C800.107 903.413 811.367 900.511 823 898.002C810.786 897.529 800.701 898.207 789 902.002C786.769 902.702 784.535 903.393 782.297 904.071C780.856 904.51 779.417 904.961 777.984 905.426C772.473 907.132 767.174 908.04 761.539 906.197C760.907 905.844 760.276 905.491 759.625 905.127C758.978 904.779 758.331 904.431 757.664 904.072C756 903.002 756 903.002 754 901.002C753.514 897.356 753.627 895.576 755.65 892.463C758.332 889.654 760.339 888.724 763.98 887.432C765.145 887.01 766.31 886.588 767.51 886.154C768.723 885.733 769.937 885.311 771.188 884.877C772.382 884.448 773.576 884.018 774.807 883.576C781.176 881.298 787.574 879.114 794 877.002C791.395 877.603 788.791 878.208 786.188 878.814C785.406 878.994 784.625 879.175 783.821 879.36C779.611 880.343 775.498 881.444 771.375 882.752C763.922 884.818 754.575 885.926 747.625 882.185C745 880.002 745 880.002 743.812 876.627C744.047 872.095 745.823 870.009 749 867.002C751.355 865.487 753.497 864.253 756 863.064C756.681 862.732 757.361 862.4 758.062 862.058C769.484 856.687 781.741 852.925 794 850.002C786.196 850.577 786.196 850.577 778.438 851.564C771.186 852.487 764.309 853.26 758 849.002C757.381 848.589 756.762 848.177 756.125 847.752C754.167 844.706 754.464 842.515 755 839.002C758.94 834.363 762.59 831.806 768.375 829.814C769.065 829.567 769.754 829.319 770.465 829.064C794.942 820.646 823.528 819.823 848 828.002Z" fill="#FC8D5B"/>
<path d="M365.003 754.999C368.756 757.014 370.64 758.453 373.003 761.999C373.355 761.493 373.707 760.988 374.07 760.467C378.089 755.178 378.089 755.178 382.503 754.311C386.637 755.123 388.877 756.17 392.003 758.999C393.908 764.116 392.373 768.904 391.003 773.999C391.622 773.05 392.241 772.101 392.878 771.124C395.003 767.999 395.003 767.999 397.003 765.999C401.985 766.08 404.065 766.22 407.941 769.436C411.004 773.242 411.106 775.165 411.003 779.999C411.003 780.329 411.003 780.659 411.003 780.999C411.89 780.895 412.777 780.792 413.691 780.686C417.003 780.999 417.003 780.999 419.675 783.03C422.537 786.678 422.733 789.359 422.566 793.811C422.547 794.92 422.547 794.92 422.527 796.051C422.275 802.804 420.822 809.032 418.976 815.51C418.086 818.702 417.312 821.699 417.003 824.999C418.788 827.771 418.788 827.771 421.003 829.999C422.558 833.108 422.29 835.561 422.003 838.999C418.279 846.933 409.924 851.092 402.003 853.999C378.502 856.733 355.053 843.605 337.061 829.473C331.564 824.9 327.925 820.489 326.453 813.315C325.801 803.894 329.818 796.136 334.003 787.999C334.427 787.171 334.85 786.344 335.286 785.492C352.232 752.739 352.232 752.739 365.003 754.999Z" fill="#FD935E"/>
<path d="M738.002 359C738.332 359 738.662 359 739.002 359C739.002 360.98 739.002 362.96 739.002 365C739.961 364.722 739.961 364.722 740.939 364.438C741.62 364.293 742.301 364.149 743.002 364C744.002 365 744.002 365 744.135 367.152C744.122 371.784 744.025 376.333 743.502 380.938C742.615 388.865 742.875 396.781 743.431 404.727C743.54 406.428 743.54 406.428 743.65 408.164C743.802 410.481 743.977 412.796 744.174 415.109C744.65 423.476 743.109 428.372 738.002 435C737.31 435.917 736.617 436.833 735.904 437.777C724.653 450.147 711.303 459.881 697.396 469.047C696.605 469.569 695.814 470.091 694.999 470.629C693.468 471.635 691.933 472.635 690.394 473.627C682.79 478.6 676.112 483.911 671.189 491.625C670.783 492.246 670.376 492.867 669.957 493.507C664.751 501.663 660.425 510.335 656.08 518.97C655.002 521 655.002 521 653.002 524C649.39 516.363 646.268 508.646 643.439 500.688C643.049 499.594 642.658 498.5 642.256 497.374C633.765 473.366 633.765 473.366 633.939 462.062C633.953 460.904 633.953 460.904 633.967 459.723C633.978 459.154 633.99 458.586 634.002 458C634.936 457.683 635.871 457.366 636.834 457.039C658.892 449.307 679.193 437.111 697.002 422C697.975 421.233 698.948 420.466 699.951 419.676C703.157 417.003 705.593 413.971 708.064 410.625C708.495 410.051 708.925 409.478 709.369 408.887C710.585 407.262 711.794 405.631 713.002 404C713.853 402.898 713.853 402.898 714.721 401.773C717.193 398.523 717.193 398.523 718.4 394.684C719.163 391.279 720.676 388.993 722.564 386.062C723.289 384.919 724.011 383.775 724.732 382.629C725.105 382.037 725.478 381.446 725.863 380.836C727.769 377.763 729.579 374.637 731.377 371.5C732.024 370.376 732.671 369.252 733.338 368.094C734.77 365.431 735.911 362.813 737.002 360C737.332 359.67 737.662 359.34 738.002 359Z" fill="#FD9660"/>
<path d="M509 756C509.33 756 509.66 756 510 756C510.33 765.9 510.66 775.8 511 786C513.597 786.906 516.195 787.812 518.871 788.746C535.949 794.708 553.021 800.68 570.027 806.844C574.45 808.446 578.882 810.024 583.316 811.594C584.577 812.041 585.838 812.488 587.099 812.935C589.486 813.78 591.875 814.624 594.265 815.464C601.618 818.072 608.83 820.925 616 824C616 825.32 616 826.64 616 828C614.802 828.166 613.604 828.332 612.37 828.503C607.822 829.134 603.275 829.766 598.727 830.399C596.778 830.67 594.829 830.94 592.88 831.21C576.638 833.462 560.395 835.721 544.228 838.464C537.346 839.607 530.45 840.663 523.554 841.714C521.764 841.989 519.974 842.266 518.185 842.546C515.559 842.957 512.932 843.359 510.305 843.758C509.519 843.883 508.733 844.008 507.924 844.137C493.208 846.334 493.208 846.334 488.765 843.65C486.29 841.337 486.103 839.405 485.508 836.094C485.281 834.888 485.053 833.682 484.819 832.439C484.59 831.139 484.361 829.839 484.125 828.5C483.619 825.772 483.102 823.046 482.586 820.32C482.457 819.627 482.327 818.934 482.194 818.22C480.677 810.145 478.847 802.142 477.004 794.135C475.409 787.119 474.126 780.106 473 773C480.26 775.31 487.52 777.62 495 780C495.66 778.35 496.32 776.7 497 775C497.891 773.43 498.822 771.882 499.785 770.355C500.316 769.514 500.846 768.673 501.393 767.807C502.219 766.51 502.219 766.51 503.062 765.188C503.617 764.304 504.172 763.42 504.744 762.51C507.808 757.677 507.808 757.677 509 756Z" fill="#202020" fill-opacity="0.7"/>
<path d="M717 394C717.66 394 718.32 394 719 394C718.423 398.251 715.9 401.32 713.438 404.688C712.981 405.313 712.524 405.939 712.053 406.584C710.714 408.398 709.36 410.201 708 412C707.392 412.812 706.783 413.624 706.156 414.461C692.604 431.032 670.749 443.049 651.75 452.188C650.626 452.731 650.626 452.731 649.479 453.286C644.95 455.376 640.693 456.632 635.759 457.404C635.178 457.6 634.598 457.797 634 458C633.67 458.99 633.34 459.98 633 461C632.951 460.238 632.902 459.476 632.852 458.691C632.502 453.863 632.157 449.194 630.938 444.5C629.582 439.046 629.83 433.583 630 428C629.34 427.67 628.68 427.34 628 427C629.095 427.016 629.095 427.016 630.212 427.032C633.579 427.074 636.946 427.099 640.312 427.125C642.034 427.15 642.034 427.15 643.791 427.176C669.639 427.322 693.824 416.505 712.355 398.742C713.906 397.163 715.453 395.582 717 394Z" fill="#BF3F40"/>
<path d="M679 353C680.401 357.202 679.045 359.338 677.363 363.309C671.582 374.722 661.359 384.672 649.188 388.812C639.571 391.371 630.882 390.549 622 386C614.016 380.792 608.211 372.286 606 363C606 361.68 606 360.36 606 359C607.32 359 608.64 359 610 359C611.309 360.609 611.309 360.609 612.438 362.75C615.57 368.171 619.083 370.948 625 373C642.139 375.137 656.204 372.182 670.695 362.844C674.195 360.044 676.529 356.707 679 353Z" fill="#6E031F"/>
<path d="M677 352C677.812 353.625 677.812 353.625 678 356C672.319 365.13 660.432 371.093 650.251 373.604C645.569 374.427 640.869 374.515 636.125 374.562C635.15 374.577 634.175 374.592 633.171 374.607C625.893 374.503 620.498 373.027 614.941 368.219C614.486 367.652 614.031 367.084 613.562 366.5C613.089 365.933 612.616 365.366 612.129 364.781C610.912 362.862 610.424 361.221 610 359C611.172 359.217 611.172 359.217 612.367 359.438C621.03 360.827 629.539 361.22 638.312 361.25C639.957 361.264 639.957 361.264 641.634 361.277C650.981 361.243 659.223 359.965 667.938 356.5C669.019 356.077 670.101 355.654 671.215 355.219C674.129 354.04 674.129 354.04 677 352Z" fill="#F6F8FA"/>
<path d="M661.672 248.371C673.654 248.63 688.834 250.441 698.027 258.855C702.934 264.034 702.934 264.034 703.187 267.754C703.094 268.866 703.094 268.866 703 270C696.685 269.505 691.067 267.897 685.051 265.938C679.013 264.082 673.157 263.72 666.883 263.482C662.864 263.281 659.634 262.753 656 261C654.535 254.774 654.535 254.774 656.625 251.297C659 249 659 249 661.672 248.371Z" fill="#202020"/>
<path d="M598.436 246.751C599.174 246.731 599.912 246.71 600.672 246.689C605.514 246.654 608.816 247.302 612.998 250.001C615.311 253.471 615.423 254.923 614.998 259.001C613.744 260.708 613.744 260.708 611.998 262.001C610.045 262.076 610.045 262.076 607.748 261.689C598.027 260.406 588.427 260.155 578.998 263.001C577.678 263.001 576.358 263.001 574.998 263.001C574.689 259.067 574.588 256.696 576.623 253.251C582.98 247.229 590.142 246.809 598.436 246.751Z" fill="#202020"/>
<path d="M420.999 789C421.329 789 421.659 789 421.999 789C422.531 798.468 421.517 806.35 418.971 815.406C418.098 818.631 417.311 821.674 416.999 825C418.783 827.773 418.783 827.773 420.999 830C422.553 833.11 422.285 835.563 421.999 839C419.245 844.866 414.491 847.895 408.999 851C407.514 851.495 407.514 851.495 405.999 852C402.978 847.771 402.978 847.771 403.061 844.688C403.851 842.422 404.736 840.513 405.842 838.398C408.051 834.022 409.78 829.546 411.436 824.938C411.735 824.112 412.033 823.286 412.341 822.436C412.945 820.757 413.546 819.078 414.144 817.398C414.686 815.877 415.233 814.357 415.787 812.84C418.675 804.928 420.805 797.487 420.999 789ZM406.999 845C407.329 845.66 407.659 846.32 407.999 847C408.329 846.34 408.659 845.68 408.999 845C408.339 845 407.679 845 406.999 845Z" fill="#F68E5D"/>
<path d="M619.997 286C621.317 286.33 622.637 286.66 623.997 287C623.948 299.846 620.1 311.88 616.364 324.064C615.397 327.264 614.754 330.089 614.872 333.438C614.913 334.613 614.954 335.789 614.997 337C621.282 340.438 626.931 342.746 633.997 344C633.997 344.66 633.997 345.32 633.997 346C630.567 347.143 627.798 347.204 624.184 347.25C622.38 347.289 622.38 347.289 620.54 347.328C615.742 346.884 612.406 345.409 608.997 342C607.597 333.503 610.196 325.211 612.428 317.094C613.356 313.679 614.206 310.246 615.059 306.812C615.224 306.157 615.388 305.501 615.557 304.825C617.12 298.569 618.575 292.29 619.997 286Z" fill="#C54443"/>
<path d="M416.998 781C420.026 781.9 421.675 782.589 423.65 785.102C425.372 788.805 425.328 791.619 425.248 795.688C425.243 796.364 425.238 797.04 425.232 797.736C425.154 802.689 425.154 802.689 423.998 805C423.654 811.092 423.306 817.398 424.998 823.312C426.532 828.967 426.588 834.351 424.998 840C423.018 840.495 423.018 840.495 420.998 841C421.044 840.42 421.091 839.84 421.139 839.242C421.406 833.451 420.558 830.747 416.998 826C415.623 821.76 416.337 819.178 417.873 815.062C420.429 808.136 421.215 801.76 421.311 794.438C421.34 793.696 421.369 792.954 421.398 792.189C421.445 788.16 421.287 786.433 418.979 782.973C418.325 782.322 417.671 781.671 416.998 781Z" fill="#99A8BB"/>
<path d="M677 352C677.812 353.625 677.812 353.625 678 356C676.532 358.246 674.841 360.024 673 362C672.505 361.01 672.505 361.01 672 360C666.374 359.511 662.569 360.737 657.43 363.027C652.494 365.003 647.624 365.166 642.363 365.246C640.885 365.279 639.406 365.312 637.928 365.346C635.61 365.393 633.293 365.438 630.975 365.477C628.729 365.516 626.484 365.568 624.238 365.621C623.542 365.63 622.847 365.638 622.13 365.647C618.119 365.649 618.119 365.649 615 368C612.428 365.013 610.784 362.861 610 359C611.172 359.217 611.172 359.217 612.367 359.438C621.03 360.827 629.539 361.22 638.312 361.25C639.957 361.264 639.957 361.264 641.634 361.277C650.981 361.243 659.223 359.965 667.938 356.5C669.019 356.077 670.101 355.654 671.215 355.219C674.129 354.04 674.129 354.04 677 352Z" fill="#D4EBF1"/>
<path d="M809.812 843.875C811.099 843.869 811.099 843.869 812.412 843.863C813.231 843.865 814.051 843.866 814.895 843.867C815.636 843.868 816.376 843.869 817.14 843.871C819 844 819 844 821 845C820.67 846.32 820.34 847.64 820 849C819.134 849.02 818.268 849.04 817.376 849.06C814.092 849.139 810.808 849.226 807.524 849.317C806.117 849.355 804.709 849.39 803.301 849.422C794.774 849.617 786.517 850.178 778.079 851.56C771.317 852.526 765.296 852.828 759 850C762.425 848.986 765.69 848.799 769.25 848.625C776.08 848.183 782.605 847.072 789.309 845.719C796.23 844.371 802.783 843.843 809.812 843.875Z" fill="#DA5548"/>
<path d="M408 771C410.336 772.752 410.951 773.707 411.438 776.625C411.056 779.567 410.627 781.083 409.414 783.68C406.455 790.165 403.673 796.724 400.882 803.284C400.252 804.762 399.621 806.239 398.988 807.716C395.701 815.389 392.456 823.011 390 831C389.34 831 388.68 831 388 831C388.48 823.526 390.417 817.331 393.125 810.375C393.527 809.319 393.928 808.263 394.342 807.175C396.64 801.218 399.118 795.414 401.938 789.688C404.49 784.459 405.979 779.746 406.711 773.977C407 772 407 772 408 771Z" fill="#D85047"/>
<path d="M391 760C391.66 760.33 392.32 760.66 393 761C392.402 772.951 386.558 783.025 381.453 793.62C378.455 799.89 375.765 806.249 373.295 812.745C371.897 816.311 371.276 817.816 368 820C368.48 812.996 370.61 807.354 373.375 800.938C373.813 799.902 374.25 798.866 374.701 797.8C378.376 789.208 382.355 780.771 386.507 772.4C386.95 771.501 387.392 770.602 387.848 769.676C388.24 768.891 388.632 768.107 389.035 767.298C390.052 764.875 390.572 762.587 391 760Z" fill="#D64D45"/>
<path d="M606 290.001C608.759 291.932 608.958 292.807 609.688 296.188C609.791 297.116 609.894 298.044 610 299.001C606.91 298.533 604.645 297.827 601.812 296.438C596.585 294.143 590.946 293.901 585.582 295.903C583.677 296.851 581.831 297.916 580 299.001C579.688 296.251 579.688 296.251 580 293.001C587.385 285.405 597.057 285.171 606 290.001Z" fill="#202020"/>
<path d="M764 304C766 306 766 306 766 309C764.866 309.289 763.731 309.578 762.562 309.875C761.387 310.247 760.211 310.618 759 311C757.06 314.88 757.161 319.918 756.695 324.203C755.523 330.604 752.95 334.793 748 339C747.01 339 746.02 339 745 339C745.409 335.73 746.213 333.611 747.812 330.688C750.319 325.947 751.385 320.928 752.517 315.724C753.437 311.653 754.541 308.392 757 305C759.513 303.744 761.217 303.792 764 304Z" fill="#C34342"/>
<path d="M813.562 869.875C814.285 869.884 815.008 869.893 815.752 869.902C817.501 869.925 819.251 869.961 821 870C820.67 871.32 820.34 872.64 820 874C819.31 874.085 818.619 874.171 817.908 874.259C814.751 874.651 811.594 875.044 808.438 875.437C807.351 875.572 806.265 875.707 805.146 875.845C803.025 876.11 800.903 876.377 798.782 876.648C796.674 876.914 794.564 877.162 792.453 877.402C786.257 878.474 780.234 880.303 774.186 882.004C773.192 882.273 772.199 882.542 771.176 882.82C770.278 883.07 769.38 883.32 768.454 883.578C765.915 884.014 764.414 883.826 762 883C765.268 880.821 767.989 879.994 771.758 878.906C772.42 878.714 773.083 878.521 773.765 878.323C775.168 877.918 776.572 877.514 777.977 877.113C780.098 876.507 782.217 875.893 784.336 875.277C803.833 869.638 803.833 869.638 813.562 869.875Z" fill="#D65347"/>
<path d="M421 789C421.33 789 421.66 789 422 789C422.558 798.916 421.324 807.378 418.599 816.851C417.972 819.1 417.415 821.359 416.867 823.629C414.562 832.924 411.89 840.293 406 848C405.01 847.67 404.02 847.34 403 847C403.406 843.756 404.319 841.235 405.832 838.379C408.055 834.011 409.781 829.545 411.438 824.938C411.736 824.112 412.035 823.286 412.342 822.436C412.946 820.757 413.547 819.078 414.145 817.398C414.687 815.877 415.235 814.357 415.789 812.84C418.677 804.928 420.806 797.487 421 789Z" fill="#DF5B4B"/>
<path d="M369 759C369.66 759 370.32 759 371 759C371.4 764.608 370.309 768.14 367.5 772.875C366.761 774.187 366.025 775.501 365.293 776.816C364.913 777.497 364.533 778.178 364.142 778.879C362.217 782.454 360.516 786.129 358.812 789.812C356.303 795.224 353.728 800.585 351.031 805.906C349.562 808.89 348.269 811.927 347 815C346.67 815 346.34 815 346 815C347.753 797.3 357.509 781.171 366.289 766.031C367.68 763.567 368.558 761.76 369 759Z" fill="#D34943"/>
<path d="M684.5 291.251C687.729 292.866 689.716 294.242 692 297.001C691.67 297.991 691.34 298.981 691 300.001C690.429 299.785 689.858 299.568 689.27 299.345C682.267 296.94 675.382 296.015 668 297.001C665.286 298.451 665.286 298.451 663 300.001C662.34 300.001 661.68 300.001 661 300.001C661.176 296.135 661.576 294.436 664.312 291.626C670.183 288.245 678.306 289.152 684.5 291.251Z" fill="#202020"/>
<path d="M609 335C612.526 335.331 614.72 336.399 617.562 338.375C622.614 341.72 628.131 342.797 634 344C634 344.66 634 345.32 634 346C630.57 347.143 627.801 347.204 624.188 347.25C622.383 347.289 622.383 347.289 620.543 347.328C615.745 346.884 612.409 345.409 609 342C608.875 338.375 608.875 338.375 609 335Z" fill="#BD3C3F"/>
<path d="M620 286C621.32 286.33 622.64 286.66 624 287C623.582 294.221 623.045 301.046 621 308C619.35 307.67 617.7 307.34 616 307C617.254 299.983 618.576 292.984 620 286Z" fill="#C94844"/>
<path d="M391 760C391.66 760.33 392.32 760.66 393 761C392.466 771.688 387.865 780.63 383 790C381.68 790 380.36 790 379 790C380.895 783.632 383.888 777.842 386.811 771.9C387.401 770.679 387.401 770.679 388.004 769.434C388.363 768.702 388.722 767.97 389.092 767.217C390.071 764.827 390.571 762.541 391 760Z" fill="#DF5A4B"/>
<path d="M337.027 685.734C339 686 339 686 342 688C343.72 688.325 345.451 688.59 347.188 688.812C353.754 689.917 358.369 692.369 363.062 697.062C364 699 364 699 363.75 701.125C363 703 363 703 362 705C361.199 712.568 362.784 717.676 367 724C367.222 729.547 365.814 734.228 363 739C359.428 738.668 357.475 738.423 354.75 736C351.665 733.757 350.846 733.84 347.188 733.812C342.733 733.508 340.758 732.432 337.688 729.188C333.561 723.969 331.173 718.242 329 712C328.631 711.025 328.263 710.051 327.883 709.047C326.916 705.711 326.734 702.905 326.75 699.438C326.745 698.343 326.74 697.249 326.734 696.121C327.367 688.686 329.452 685.791 337.027 685.734Z" fill="#202020"/>
<path d="M348.001 673C349.321 673.33 350.641 673.66 352.001 674C352.275 679.394 352.361 682.519 349.001 687C344.126 686.125 344.126 686.125 343.001 685C342.582 681.999 342.436 679.875 344.118 677.27C345.356 675.797 346.674 674.393 348.001 673Z" fill="#202020"/>
<path d="M421 789C421.33 789 421.66 789 422 789C422.612 799.88 420.941 808.59 418 819C417.316 821.663 416.657 824.33 416 827C413.525 827.495 413.525 827.495 411 828C413.185 819.441 415.937 811.211 419.188 803C420.432 798.405 420.68 793.738 421 789Z" fill="#E85E48"/>
<path d="M737 363C737.33 363.66 737.66 364.32 738 365C736.033 370.177 733.51 375.067 731 380C730.34 380 729.68 380 729 380C728.745 380.715 728.49 381.431 728.227 382.168C726.912 385.202 725.305 387.632 723.375 390.312C722.743 391.196 722.112 392.079 721.461 392.988C720.738 393.984 720.738 393.984 720 395C719.34 394.34 718.68 393.68 718 393C718.545 392.163 719.091 391.327 719.652 390.465C724.303 383.297 728.819 376.068 733.168 368.713C735.904 364.096 735.904 364.096 737 363Z" fill="#F27F58"/>
<path d="M606 359C607.32 359 608.64 359 610 359C610.99 361.31 611.98 363.62 613 366C612.01 366.33 611.02 366.66 610 367C613.49 375.338 617.68 381.451 626 385.438C626.66 385.623 627.32 385.809 628 386C628 386.66 628 387.32 628 388C621.073 386.441 616.291 382.195 612.227 376.527C608.706 370.834 606 365.815 606 359Z" fill="#63091A"/>
<path d="M795 875.001C792.447 876.703 790.998 877.428 788.156 878.22C787.409 878.429 786.662 878.639 785.892 878.854C785.103 879.068 784.313 879.281 783.5 879.501C782.696 879.722 781.893 879.943 781.065 880.17C775.095 881.779 769.121 883.098 763 884.001C762.67 883.341 762.34 882.681 762 882.001C766.369 880.626 770.746 879.28 775.125 877.939C776.363 877.549 777.6 877.159 778.875 876.757C780.074 876.393 781.273 876.029 782.508 875.654C783.608 875.313 784.707 874.973 785.84 874.622C789.241 873.954 791.646 874.221 795 875.001Z" fill="#E0594A"/>
<path d="M764 304C766 306 766 306 766 309C764.886 309.31 763.773 309.619 762.625 309.938C759.205 310.824 759.205 310.824 757 312C756.348 314.025 756.348 314.025 756 316C755.01 316 754.02 316 753 316C753.509 311.626 754.429 308.599 757 305C759.513 303.744 761.217 303.792 764 304Z" fill="#CB4C45"/>
<path d="M679 353C680.213 356.639 679.662 357.588 678.25 361.062C677.732 362.379 677.732 362.379 677.203 363.723C676 366 676 366 673 368C673 367.34 673 366.68 673 366C672.464 366.33 671.927 366.66 671.375 367C668.461 368.227 666.131 368.142 663 368C665.077 366.439 667.157 364.885 669.254 363.352C675.089 359.037 675.089 359.037 679 353Z" fill="#620F1D"/>
<path d="M408 771C410.336 772.752 410.951 773.707 411.438 776.625C410.845 781.193 409.039 784.903 407 789C405.68 788.34 404.36 787.68 403 787C403.474 785.824 403.949 784.649 404.438 783.438C405.873 779.65 406.507 776.027 407 772C407.33 771.67 407.66 771.34 408 771Z" fill="#DD5145"/>
<path d="M613 363C626.86 363 640.72 363 655 363C655 363.33 655 363.66 655 364C650.786 365.01 646.674 365.181 642.363 365.246C640.885 365.279 639.406 365.312 637.928 365.346C635.61 365.393 633.293 365.438 630.975 365.477C628.729 365.516 626.484 365.568 624.238 365.621C623.542 365.63 622.847 365.638 622.13 365.647C618.119 365.649 618.119 365.649 615 368C614.34 367.34 613.68 366.68 613 366C613 365.01 613 364.02 613 363Z" fill="#DAEEF9"/>
<path d="M742 398C742.33 398 742.66 398 743 398C743.255 402.395 743.475 406.791 743.688 411.188C743.76 412.433 743.833 413.679 743.908 414.963C743.963 416.165 744.018 417.367 744.074 418.605C744.132 419.71 744.189 420.815 744.249 421.954C743.967 425.402 742.987 427.21 741 430C740.67 429.34 740.34 428.68 740 428C740.33 427.34 740.66 426.68 741 426C741.352 419.266 741.024 412.657 740 406C740.66 406 741.32 406 742 406C742 403.36 742 400.72 742 398Z" fill="#E89265"/>
<path d="M613 366C613.568 366.41 614.137 366.82 614.723 367.242C623.906 373.651 631.967 374.419 643 375C643 375.33 643 375.66 643 376C633.132 376.564 623.505 376.959 615 371C613.68 368.324 613.68 368.324 613 366Z" fill="#5F0407"/>
<path d="M610 359C612.461 359.254 614.917 359.528 617.375 359.812C618.074 359.883 618.772 359.953 619.492 360.025C621.343 360.248 623.175 360.617 625 361C625.99 362.485 625.99 362.485 627 364C625.229 364.027 623.458 364.046 621.688 364.062C620.701 364.074 619.715 364.086 618.699 364.098C616 364 616 364 613 363C612.67 363.66 612.34 364.32 612 365C611.34 363.02 610.68 361.04 610 359Z" fill="#D2DFE7"/>
<path d="M620 286C621.98 286.495 621.98 286.495 624 287C623.67 291.29 623.34 295.58 623 300C622.34 298.68 621.68 297.36 621 296C621.33 295.01 621.66 294.02 622 293C621.01 293.33 620.02 293.66 619 294C618.875 288.25 618.875 288.25 620 286Z" fill="#D5584A"/>
<path d="M421 789C421.33 789 421.66 789 422 789C422.214 797.27 422.074 804.962 420 813C419.01 812.34 418.02 811.68 417 811C417.205 810.334 417.41 809.667 417.621 808.98C419.572 802.306 420.611 795.939 421 789Z" fill="#EB7151"/>
<path d="M634 343.999C634 344.659 634 345.319 634 345.999C630.44 347.186 627.562 347.096 623.812 347.062C622.54 347.053 621.268 347.044 619.957 347.034C618.493 347.017 618.493 347.017 617 346.999C617 346.669 617 346.339 617 345.999C623.083 343.833 627.645 342.48 634 343.999Z" fill="#C64644"/>
<path d="M759 849.001C761.417 848.947 763.833 848.907 766.25 848.876C766.932 848.859 767.614 848.842 768.316 848.825C772.061 848.789 774.824 848.921 778 851.001C774.965 852.012 772.803 852.166 769.625 852.188C768.221 852.209 768.221 852.209 766.789 852.231C763.839 851.987 761.676 851.232 759 850.001C759 849.671 759 849.341 759 849.001Z" fill="#D25C49"/>
<path d="M796 845C798.64 845 801.28 845 804 845C804 845.33 804 845.66 804 846C807.3 846.33 810.6 846.66 814 847C814 847.33 814 847.66 814 848C811.376 848.388 808.752 848.761 806.125 849.125C805.379 849.237 804.632 849.349 803.863 849.465C801.918 849.728 799.958 849.872 798 850C797.34 849.34 796.68 848.68 796 848C796.99 848 797.98 848 799 848C799 847.34 799 846.68 799 846C798.01 845.67 797.02 845.34 796 845Z" fill="#CE4C45"/>
<path d="M391 760C391.66 760.33 392.32 760.66 393 761C392.885 762.418 392.757 763.834 392.625 765.25C392.555 766.039 392.486 766.828 392.414 767.641C391.985 770.086 391.214 771.848 390 774C389.01 773.67 388.02 773.34 387 773C387.289 772.154 387.577 771.309 387.875 770.438C389.008 766.976 390.018 763.506 391 760Z" fill="#EB6549"/>
<path d="M350 798C350.144 798.619 350.289 799.237 350.438 799.875C350.932 802.033 350.932 802.033 352 804C351.293 806.348 351.293 806.348 350.188 809.062C349.83 809.961 349.473 810.859 349.105 811.785C348 814 348 814 346 815C346.55 808.952 347.904 803.694 350 798Z" fill="#DE5B4A"/>
<path d="M417 781C420.023 781.899 421.677 782.592 423.656 785.094C425.338 788.73 425.334 791.897 425.188 795.812C425.174 796.505 425.16 797.198 425.146 797.912C425.111 799.608 425.058 801.304 425 803C424.67 803 424.34 803 424 803C423.997 802.082 423.995 801.164 423.992 800.219C423.734 792.04 422.933 786.842 417 781Z" fill="#ADBACA"/>
<path d="M392 760C392.99 760.33 393.98 760.66 395 761C394.66 766.38 394.315 770.533 391 775C389.542 772.084 390.704 770.05 391.52 767.043C392.082 764.652 392.153 762.447 392 760Z" fill="#A8A8B4"/>
<path d="M657.002 512C658.216 515.642 657.669 516.332 656.064 519.688C655.684 520.496 655.304 521.304 654.912 522.137C654.612 522.752 654.311 523.366 654.002 524C652.002 523 652.002 523 650.814 520.625C650.002 518 650.002 518 651.002 515C651.992 516.485 651.992 516.485 653.002 518C654.322 516.02 655.642 514.04 657.002 512Z" fill="#ED9B65"/>
<path d="M725 384C725.33 384.99 725.66 385.98 726 387C724.785 389.043 724.785 389.043 723.062 391.188C722.497 391.903 721.931 392.618 721.348 393.355C720.903 393.898 720.458 394.441 720 395C719.34 394.34 718.68 393.68 718 393C718.786 391.684 719.579 390.372 720.375 389.062C720.816 388.332 721.257 387.601 721.711 386.848C723 385 723 385 725 384Z" fill="#E87455"/>
<path d="M630 343C633.3 343 636.6 343 640 343C640 343.99 640 344.98 640 346C635.545 346.495 635.545 346.495 631 347C631.99 346.67 632.98 346.34 634 346C634 345.34 634 344.68 634 344C632.68 343.67 631.36 343.34 630 343Z" fill="#ED7B58"/>
<path d="M408.001 771C409.501 772.125 409.501 772.125 411.001 774C411.313 777.062 411.313 777.062 411.001 780C410.341 780.66 409.681 781.32 409.001 782C406.911 778.604 406.738 775.948 407.001 772C407.331 771.67 407.661 771.34 408.001 771Z" fill="#E26E5A"/>
<path d="M368 845C368.99 845 369.98 845 371 845C371 845.66 371 846.32 371 847C371.99 846.67 372.98 846.34 374 846C375.32 847.65 376.64 849.3 378 851C374.7 850.01 371.4 849.02 368 848C368 847.01 368 846.02 368 845Z" fill="#ED9057"/>
<path d="M613 366C619 370 619 370 625 374C620.65 373.494 617.5 372.7 614 370C613.363 367.895 613.363 367.895 613 366Z" fill="#600F1A"/>
<path d="M613 363C616.63 363.33 620.26 363.66 624 364C624 364.33 624 364.66 624 365C622.886 365.124 621.773 365.247 620.625 365.375C616.969 365.647 616.969 365.647 615 368C614.34 367.34 613.68 366.68 613 366C613 365.01 613 364.02 613 363Z" fill="#E7F4FA"/>
<path d="M236 557.002C236 557.332 236 557.662 236 558.002C234.927 558.249 233.855 558.497 232.75 558.752C229.004 560 227.479 561.027 225 564.002C225.312 561.627 225.312 561.627 226 559.002C229.644 556.572 231.712 556.84 236 557.002Z" fill="#E0DBD7"/>
<path d="M771 880C771 880.66 771 881.32 771 882C766.569 884.092 766.569 884.092 763.688 883.625C763.131 883.419 762.574 883.213 762 883C765.125 880.917 767.271 880 771 880Z" fill="#EC6D4F"/>
<path d="M389 822C389.33 822.66 389.66 823.32 390 824C390.66 824 391.32 824 392 824C391.34 826.31 390.68 828.62 390 831C389.34 831 388.68 831 388 831C388.33 828.03 388.66 825.06 389 822Z" fill="#DE5B4A"/>
<path d="M367 756C368.32 756 369.64 756 371 756C371 756.66 371 757.32 371 758C371.66 758 372.32 758 373 758C373.33 759.32 373.66 760.64 374 762C373.01 762 372.02 762 371 762C370.711 761.381 370.423 760.762 370.125 760.125C369.063 757.867 369.063 757.867 367 756Z" fill="#A7ACBF"/>
<g clip-path="url(#clip0_325_848)">
<path d="M595 635C595 619.536 582.464 607 567 607C551.536 607 539 619.536 539 635C539 650.464 551.536 663 567 663C582.464 663 595 650.464 595 635Z" fill="white"/>
<path d="M580.012 630.733C580.023 630.731 589.86 629.202 590.284 638.277C589.171 647.966 576.411 645.16 576.411 645.16L575.854 643.572C575.854 643.572 576.676 648.363 571.036 649.714C565.397 651.064 552.768 649.131 552.768 649.131L564.946 637.015L566.552 637.811L566.086 638.277H565.397L562.353 641.481C566.957 644.937 569.103 641.322 580.012 630.733ZM553.616 636.917C547.023 620.911 566.773 607.225 579.35 625.041L570.072 634.299L568.51 633.469L568.918 633.062H569.554L572.625 629.885C570.525 628.393 569.263 627.8 566.086 629.462L549.618 646.034C548.272 641.288 548.582 639.03 552.768 636.371L553.377 637.192L553.616 637.218V636.917Z" fill="#0A76DD"/>
</g>
<defs>
<linearGradient id="paint0_linear_325_848" x1="1336" y1="981.5" x2="568.5" y2="876.5" gradientUnits="userSpaceOnUse">
<stop offset="0.394231" stop-color="#202020" stop-opacity="0"/>
<stop offset="0.8346" stop-color="#202020" stop-opacity="0.7"/>
</linearGradient>
<clipPath id="clip0_325_848">
<rect width="56" height="56" fill="white" transform="translate(539 607)"/>
</clipPath>
</defs>
</svg>
