<svg width="1080" height="1080" viewBox="0 0 1080 1080" fill="none" xmlns="http://www.w3.org/2000/svg">
<rect width="1080" height="1080" rx="540" fill="white"/>
<path d="M790.889 457.697C791.109 457.663 980.825 428.188 989 603.204C967.544 790.065 721.448 735.946 721.448 735.946L710.714 705.314C710.714 705.314 726.554 797.721 617.797 823.76C509.04 849.8 265.486 812.528 265.486 812.528L500.331 578.859L531.319 594.218L522.316 603.204H509.039L450.322 664.98C539.121 731.647 580.513 661.917 790.889 457.697ZM281.825 576.965C154.676 268.285 535.581 4.32889 778.124 347.929L599.2 526.479L569.071 510.465L576.95 502.626H589.203L648.433 441.359C607.924 412.575 583.586 401.138 522.316 433.191L204.725 752.795C178.767 661.272 184.752 617.728 265.486 566.444L277.23 582.271L281.825 582.782V576.965Z" fill="#0A76DD"/>
</svg>
