<svg width="1080" height="1080" viewBox="0 0 1080 1080" fill="none" xmlns="http://www.w3.org/2000/svg">
<rect width="1080" height="1080" rx="250" fill="white"/>
<path d="M530.55 614.152V516.352H552.6V554.002H586.35V516.352H608.55V614.152H586.35V573.352H552.6V614.152H530.55ZM671.374 615.952C662.574 615.952 654.824 613.902 648.124 609.802C641.524 605.702 636.324 599.852 632.524 592.252C628.824 584.552 626.974 575.402 626.974 564.802C626.974 554.102 628.824 545.052 632.524 537.652C636.324 530.152 641.524 524.452 648.124 520.552C654.824 516.552 662.574 514.552 671.374 514.552C680.174 514.552 687.874 516.552 694.474 520.552C701.174 524.452 706.374 530.152 710.074 537.652C713.874 545.152 715.774 554.202 715.774 564.802C715.774 575.402 713.874 584.552 710.074 592.252C706.374 599.852 701.174 605.702 694.474 609.802C687.874 613.902 680.174 615.952 671.374 615.952ZM671.374 596.902C678.074 596.902 683.374 594.002 687.274 588.202C691.174 582.402 693.124 574.602 693.124 564.802C693.124 555.002 691.174 547.352 687.274 541.852C683.374 536.352 678.074 533.602 671.374 533.602C664.674 533.602 659.374 536.352 655.474 541.852C651.574 547.352 649.624 555.002 649.624 564.802C649.624 574.602 651.574 582.402 655.474 588.202C659.374 594.002 664.674 596.902 671.374 596.902ZM774.963 615.952C766.763 615.952 759.213 614.052 752.313 610.252C745.413 606.452 739.863 600.852 735.663 593.452C731.563 585.952 729.513 576.752 729.513 565.852C729.513 555.052 731.613 545.852 735.813 538.252C740.113 530.552 745.763 524.702 752.763 520.702C759.863 516.602 767.513 514.552 775.713 514.552C782.013 514.552 787.663 515.852 792.663 518.452C797.663 520.952 801.813 523.902 805.113 527.302L793.413 541.402C790.913 539.102 788.263 537.252 785.463 535.852C782.763 534.352 779.663 533.602 776.163 533.602C771.763 533.602 767.713 534.852 764.013 537.352C760.413 539.852 757.513 543.452 755.313 548.152C753.213 552.852 752.163 558.502 752.163 565.102C752.163 575.102 754.313 582.902 758.613 588.502C762.913 594.102 768.663 596.902 775.863 596.902C779.863 596.902 783.413 596.002 786.513 594.202C789.713 592.402 792.513 590.252 794.913 587.752L806.613 601.552C798.413 611.152 787.863 615.952 774.963 615.952ZM821.468 614.152V516.352H843.518V614.152H821.468Z" fill="black"/>
<path d="M430.977 522.285C430.977 522.285 496.192 512.118 499.001 572.244C491.633 636.402 407.134 617.82 407.134 617.82L403.449 607.302C403.449 607.302 408.887 639.03 371.544 647.97C334.205 656.91 250.591 644.116 250.576 644.114L331.211 563.885L341.851 569.158L338.76 572.244H334.202L314.041 593.455C344.53 616.344 358.743 592.403 430.977 522.285ZM256.186 563.235C212.528 457.252 343.315 366.624 426.594 484.597L365.159 545.9L354.814 540.401L357.519 537.711H361.727L382.064 516.676C368.155 506.793 359.798 502.866 338.76 513.871L229.712 623.605C220.8 592.182 222.855 577.231 250.576 559.623L254.608 565.056L256.186 565.232V563.235Z" fill="#0A76DD"/>
</svg>
